HIERARCHY
ROOT Hips
{
	OFFSET 0.00000 0.00000 0.00000
	CHANNELS 6 Xposition Yposition Zposition Zrotation Yrotation Xrotation 
	JOINT LHipJoint
	{
		OFFSET 0 0 0
		CHANNELS 3 Zrotation Yrotation Xrotation
		JOINT LeftHip
		{
			OFFSET 1.62964 -1.40469 0.78906
			CHANNELS 3 Zrotation Yrotation Xrotation
			JOINT LeftKnee
			{
				OFFSET 2.29640 -6.30932 0.00000
				CHANNELS 3 Zrotation Yrotation Xrotation
				JOINT LeftAnkle
				{
					OFFSET 2.29451 -6.30412 0.00000
					CHANNELS 3 Zrotation Yrotation Xrotation
					JOINT LeftToe
					{
						OFFSET 0.03611 -0.09921 1.56387
						CHANNELS 3 Zrotation Yrotation Xrotation
						End Site
						{
							OFFSET 0.00000 -0.00000 0.80291
						}
					}
				}
			}
		}
	}
	JOINT RHipJoint
	{
		OFFSET 0 0 0
		CHANNELS 3 Zrotation Yrotation Xrotation
		JOINT RightHip
		{
			OFFSET -1.73712 -1.40469 0.78906
			CHANNELS 3 Zrotation Yrotation Xrotation
			JOINT RightKnee
			{
				OFFSET -2.28137 -6.26801 0.00000
				CHANNELS 3 Zrotation Yrotation Xrotation
				JOINT RightAnkle
				{
					OFFSET -2.28681 -6.28298 0.00000
					CHANNELS 3 Zrotation Yrotation Xrotation
					JOINT RightToe
					{
						OFFSET -0.15927 -0.43759 1.61103
						CHANNELS 3 Zrotation Yrotation Xrotation
						End Site
						{
							OFFSET -0.00000 -0.00000 0.84630
						}
					}
				}
			}
		}
	}
	JOINT lowerback
	{
		OFFSET 0 0 0
		CHANNELS 3 Zrotation Yrotation Xrotation
		JOINT Chest
		{
			OFFSET -0.04227 2.04338 -0.00225
			CHANNELS 3 Zrotation Yrotation Xrotation
			JOINT Chest2
			{
				OFFSET -0.02148 2.04482 -0.04273
				CHANNELS 3 Zrotation Yrotation Xrotation
				JOINT lowerneck
				{
					OFFSET 0 0 0
					CHANNELS 3 Zrotation Yrotation Xrotation
					JOINT Neck
					{
						OFFSET 0.09180 1.44629 0.19359
						CHANNELS 3 Zrotation Yrotation Xrotation
						JOINT Head
						{
							OFFSET 0.00887 1.40645 0.14750
							CHANNELS 3 Zrotation Yrotation Xrotation
							End Site
							{
								OFFSET -0.00669 1.50671 0.03707
							}
						}
					}
				}
				JOINT LeftCollar
				{
					OFFSET 0 0 0
					CHANNELS 3 Zrotation Yrotation Xrotation
					JOINT LeftShoulder
					{
						OFFSET 2.17674 1.86763 -0.06520
CHANNELS 3 Zrotation Xrotation Yrotation
						JOINT LeftElbow
						{
OFFSET 0 -4.657760 0.000000
CHANNELS 3 Zrotation Xrotation Yrotation
							JOINT LeftWrist
							{
OFFSET 0 -3.555390 0.000000
CHANNELS 3 Zrotation Xrotation Yrotation
								JOINT lhand
								{
									OFFSET 0 0 0
CHANNELS 3 Zrotation Xrotation Yrotation
									JOINT LFingers
									{
OFFSET 0 -0.707260 0.000000
CHANNELS 3 Zrotation Xrotation Yrotation
										End Site
										{
OFFSET 0 -0.570220 0.000000
										}
									}
								}
								JOINT LThumb
								{
OFFSET 0 0.000000 0.000000
CHANNELS 3 Zrotation Xrotation Yrotation
									End Site
									{
OFFSET 0 -0.578920 0.578920
									}
								}
							}
						}
					}
				}
				JOINT RightCollar
				{
					OFFSET 0 0 0
					CHANNELS 3 Zrotation Yrotation Xrotation
					JOINT RightShoulder
					{
						OFFSET -2.80694 1.55459 -0.32496
CHANNELS 3 Zrotation Xrotation Yrotation
						JOINT RightElbow
						{
OFFSET 0 -4.719250 -0.000000
CHANNELS 3 Zrotation Xrotation Yrotation
							JOINT RightWrist
							{
OFFSET 0 -3.569900 0.000000
CHANNELS 3 Zrotation Xrotation Yrotation
								JOINT rhand
								{
									OFFSET 0 0 0
CHANNELS 3 Zrotation Xrotation Yrotation
									JOINT RFingers
									{
OFFSET 0 -0.507760 0.000000
CHANNELS 3 Zrotation Xrotation Yrotation
										End Site
										{
OFFSET 0 -0.409370 0.000000
										}
									}
								}
								JOINT RThumb
								{
OFFSET 0 0.000000 0.000000
CHANNELS 3 Zrotation Xrotation Yrotation
									End Site
									{
OFFSET 0 -0.415620 0.415620
									}
								}
							}
						}
					}
				}
			}
		}
	}
}
MOTION
Frames: 9
Frame Time: 0.008333333333333333
9.657200 11.842100 4.342400 -0.070000 -1.133500 19.034700 0.000000 0.000000 0.000000 2.628900 -14.759300 -68.379800 0.000000 0.000000 0.000000 0.000000 0.000000 0.000000 0.000000 0.000000 0.000000 0.000000 0.000000 0.000000 1.210900 11.830700 -65.604500 0.000000 0.000000 0.000000 -0.000000 -0.000000 0.000000 -0.000000 -0.000000 0.000000 -2.007400 0.570500 -0.522000 -1.472300 0.827200 2.085800 -0.364200 0.388800 2.425700 6.112300 -0.731800 -10.015200 1.772100 -1.258000 -14.835100 -0.461800 -0.992200 -3.131100 0.000000 0.000000 0.000000 90.000000 0.000000 0.000000 0.000000 0.000000 0.000000 -0.000000 0.000000 -0.000000 0.000000 0.000000 0.000000 -0.000000 0.000000 -0.000000 0.000000 0.000000 -0.000000 0.000000 0.000000 0.000000 -117.364700 -72.413300 -59.363800 -9.462200 -15.894000 -1.323900 -14.258100 38.350500 35.761600 0.000000 0.000000 0.000000 7.125000 0.000000 -0.000000 24.753300 64.965700 -12.301700
9.657167 11.841724 4.342809 -0.073894 -1.131733 19.024720 0.000000 0.000000 0.000000 2.632352 -14.762392 -68.369247 0.000000 0.000000 0.000000 0.000000 0.000000 0.000000 0.000000 0.000000 0.000000 0.000000 0.000000 0.000000 1.220880 11.827657 -65.592410 0.000000 0.000000 0.000000 0.000000 0.000000 0.000000 0.000000 0.000000 0.000000 -2.008022 0.570647 -0.524454 -1.470860 0.827756 2.097989 -0.362302 0.388898 2.439607 6.227462 -0.774436 -9.829474 1.648152 -1.315295 -15.060271 -0.521042 -1.030991 -3.249682 0.000000 0.000000 0.000000 90.000000 0.000000 0.000000 0.000000 0.000000 0.000000 0.000000 0.000000 0.000000 0.000000 0.000000 0.000000 0.000000 0.000000 0.000000 0.000000 0.000000 0.000000 0.000000 0.000000 0.000000 -117.388930 -72.400719 -59.359759 -9.472409 -15.910115 -1.326698 -14.264726 38.328070 35.816768 0.000000 0.000000 0.000000 7.125000 0.000000 0.000000 24.808942 65.016336 -12.360222
9.657135 11.841347 4.343218 -0.077788 -1.129966 19.014740 0.000000 0.000000 0.000000 2.635804 -14.765484 -68.358695 0.000000 0.000000 0.000000 0.000000 0.000000 0.000000 0.000000 0.000000 0.000000 0.000000 0.000000 0.000000 1.230860 11.824614 -65.580319 0.000000 0.000000 0.000000 0.000000 0.000000 0.000000 0.000000 0.000000 0.000000 -2.008643 0.570794 -0.526908 -1.469421 0.828313 2.110177 -0.360404 0.388996 2.453513 6.342625 -0.817071 -9.643749 1.524204 -1.372590 -15.285442 -0.580283 -1.069782 -3.368263 0.000000 0.000000 0.000000 90.000000 0.000000 0.000000 0.000000 0.000000 0.000000 0.000000 0.000000 0.000000 0.000000 0.000000 0.000000 0.000000 0.000000 0.000000 0.000000 0.000000 0.000000 0.000000 0.000000 0.000000 -117.413160 -72.388137 -59.355718 -9.482618 -15.926230 -1.329495 -14.271352 38.305639 35.871936 0.000000 0.000000 0.000000 7.125000 0.000000 0.000000 24.864585 65.066972 -12.418744
9.657102 11.840971 4.343627 -0.081681 -1.128199 19.004760 0.000000 0.000000 0.000000 2.639256 -14.768576 -68.348142 0.000000 0.000000 0.000000 0.000000 0.000000 0.000000 0.000000 0.000000 0.000000 0.000000 0.000000 0.000000 1.240840 11.821571 -65.568229 0.000000 0.000000 0.000000 0.000000 0.000000 0.000000 0.000000 0.000000 0.000000 -2.009265 0.570942 -0.529362 -1.467981 0.828869 2.122366 -0.358507 0.389094 2.467420 6.457787 -0.859707 -9.458023 1.400256 -1.429884 -15.510613 -0.639525 -1.108573 -3.486845 0.000000 0.000000 0.000000 90.000000 0.000000 0.000000 0.000000 0.000000 0.000000 0.000000 0.000000 0.000000 0.000000 0.000000 0.000000 0.000000 0.000000 0.000000 0.000000 0.000000 0.000000 0.000000 0.000000 0.000000 -117.437390 -72.375556 -59.351677 -9.492827 -15.942346 -1.332293 -14.277978 38.283209 35.927104 0.000000 0.000000 0.000000 7.125000 0.000000 0.000000 24.920227 65.117608 -12.477266
9.657069 11.840595 4.344036 -0.085575 -1.126432 18.994780 0.000000 0.000000 0.000000 2.642708 -14.771669 -68.337590 0.000000 0.000000 0.000000 0.000000 0.000000 0.000000 0.000000 0.000000 0.000000 0.000000 0.000000 0.000000 1.250820 11.818528 -65.556138 0.000000 0.000000 0.000000 0.000000 0.000000 0.000000 0.000000 0.000000 0.000000 -2.009887 0.571089 -0.531816 -1.466541 0.829425 2.134555 -0.356609 0.389193 2.481326 6.572949 -0.902343 -9.272298 1.276308 -1.487179 -15.735784 -0.698767 -1.147364 -3.605427 0.000000 0.000000 0.000000 90.000000 0.000000 0.000000 0.000000 0.000000 0.000000 0.000000 0.000000 0.000000 0.000000 0.000000 0.000000 0.000000 0.000000 0.000000 0.000000 0.000000 0.000000 0.000000 0.000000 0.000000 -117.461620 -72.362975 -59.347636 -9.503036 -15.958461 -1.335091 -14.284604 38.260778 35.982272 0.000000 0.000000 0.000000 7.125000 0.000000 0.000000 24.975870 65.168244 -12.535787
9.657036 11.840219 4.344445 -0.089469 -1.124665 18.984800 0.000000 0.000000 0.000000 2.646160 -14.774761 -68.327037 0.000000 0.000000 0.000000 0.000000 0.000000 0.000000 0.000000 0.000000 0.000000 0.000000 0.000000 0.000000 1.260800 11.815485 -65.544048 0.000000 0.000000 0.000000 0.000000 0.000000 0.000000 0.000000 0.000000 0.000000 -2.010509 0.571236 -0.534270 -1.465101 0.829981 2.146743 -0.354711 0.389291 2.495233 6.688111 -0.944979 -9.086572 1.152360 -1.544474 -15.960955 -0.758009 -1.186155 -3.724008 0.000000 0.000000 0.000000 90.000000 0.000000 0.000000 0.000000 0.000000 0.000000 0.000000 0.000000 0.000000 0.000000 0.000000 0.000000 0.000000 0.000000 0.000000 0.000000 0.000000 0.000000 0.000000 0.000000 0.000000 -117.485850 -72.350393 -59.343595 -9.513245 -15.974576 -1.337888 -14.291230 38.238348 36.037440 0.000000 0.000000 0.000000 7.125000 0.000000 0.000000 25.031512 65.218880 -12.594309
9.657004 11.839842 4.344854 -0.093363 -1.122898 18.974820 0.000000 0.000000 0.000000 2.649613 -14.777853 -68.316484 0.000000 0.000000 0.000000 0.000000 0.000000 0.000000 0.000000 0.000000 0.000000 0.000000 0.000000 0.000000 1.270780 11.812442 -65.531957 0.000000 0.000000 0.000000 0.000000 0.000000 0.000000 0.000000 0.000000 0.000000 -2.011130 0.571383 -0.536725 -1.463662 0.830538 2.158932 -0.352813 0.389389 2.509139 6.803274 -0.987614 -8.900847 1.028413 -1.601769 -16.186126 -0.817250 -1.224946 -3.842590 0.000000 0.000000 0.000000 90.000000 0.000000 0.000000 0.000000 0.000000 0.000000 0.000000 0.000000 0.000000 0.000000 0.000000 0.000000 0.000000 0.000000 0.000000 0.000000 0.000000 0.000000 0.000000 0.000000 0.000000 -117.510080 -72.337812 -59.339554 -9.523454 -15.990691 -1.340686 -14.297856 38.215918 36.092608 0.000000 0.000000 0.000000 7.125000 0.000000 0.000000 25.087154 65.269516 -12.652831
9.657160 11.839437 4.345234 -0.099479 -1.117587 18.966685 0.000000 0.000000 0.000000 2.655897 -14.782238 -68.309548 0.000000 0.000000 0.000000 0.000000 0.000000 0.000000 0.000000 0.000000 0.000000 0.000000 0.000000 0.000000 1.281370 11.806624 -65.519591 0.000000 0.000000 0.000000 0.000000 0.000000 0.000000 0.000000 0.000000 0.000000 -2.006668 0.570543 -0.536797 -1.458417 0.829235 2.159269 -0.349957 0.388775 2.509524 6.805989 -0.970817 -8.950268 1.026265 -1.584075 -16.159461 -0.818729 -1.215270 -3.823366 0.000000 0.000000 0.000000 90.000000 0.000000 0.000000 0.000000 0.000000 0.000000 0.000000 0.000000 0.000000 0.000000 0.000000 0.000000 0.000000 0.000000 0.000000 0.000000 0.000000 0.000000 0.000000 0.000000 0.000000 -117.483519 -72.331258 -59.265854 -9.534767 -16.008535 -1.343803 -14.255390 38.166313 36.154980 0.000000 0.000000 0.000000 7.125000 0.000000 0.000000 25.207081 65.312411 -12.742333
9.657340 11.839028 4.345610 -0.105876 -1.111829 18.958783 0.000000 0.000000 0.000000 2.662539 -14.786786 -68.303070 0.000000 0.000000 0.000000 0.000000 0.000000 0.000000 0.000000 0.000000 0.000000 0.000000 0.000000 0.000000 1.292037 11.800456 -65.507189 0.000000 0.000000 0.000000 0.000000 0.000000 0.000000 0.000000 0.000000 0.000000 -2.001564 0.569578 -0.536568 -1.452690 0.827697 2.158107 -0.346979 0.388072 2.508198 6.794488 -0.946505 -9.029421 1.039517 -1.556900 -16.100956 -0.812905 -1.199465 -3.786718 0.000000 0.000000 0.000000 90.000000 0.000000 0.000000 0.000000 0.000000 0.000000 0.000000 0.000000 0.000000 0.000000 0.000000 0.000000 0.000000 0.000000 0.000000 0.000000 0.000000 0.000000 0.000000 0.000000 0.000000 -117.450536 -72.325467 -59.183348 -9.546219 -16.026597 -1.346961 -14.206718 38.113271 36.218262 0.000000 0.000000 0.000000 7.125000 0.000000 0.000000 25.335135 65.354327 -12.835752
